<?xml version="1.0" encoding="utf-8"?>
<!-- Generator: Adobe Illustrator 23.1.1, SVG Export Plug-In . SVG Version: 6.00 Build 0)  -->
<svg version="1.1" id="Layer_1" xmlns="http://www.w3.org/2000/svg" xmlns:xlink="http://www.w3.org/1999/xlink" x="0px" y="0px"
	 viewBox="0 0 107.9 537.3" style="enable-background:new 0 0 107.9 537.3;" xml:space="preserve">
<style type="text/css">
	.st0{fill:#6FB4E3;}
	.st1{fill:#9F216A;}
	.st2{fill:none;stroke:#FCC99E;stroke-width:1.45;}
	.st3{fill:none;stroke:#E26E45;}
</style>
<g>
	<path class="st0" d="M17.8,513H7.7v13h10.1V513L17.8,513z M23.4,526h43c3.8,0,6.3,0.1,6.3,4.3c0,0.5-0.1,1.4-0.1,1.6h10.4
		c0.2-2.1,0.2-4,0.2-6c0-9.5-3.8-12.9-15.6-12.9H23.4V526L23.4,526z M68.1,461.2H23.4v13.1h27.9c4.1,0,7.4,2.2,7.4,7.5
		c0,5.3-3.6,6.3-6.6,6.3H23.4v13.3h30c11,0,16-4.2,16-14c0-7.4-3.8-11.8-5.5-13h4.2V461.2L68.1,461.2z M28.6,413.5
		c-4.1,5.4-6.7,12.2-6.7,19.9c0,12.6,7.4,18.9,15,18.9c6.8,0,11.5-4.4,13.3-15l0.7-4c0.8-4.8,1.5-7.1,3.9-7.1c2.8,0,4.4,3.6,4.4,8
		c0,4.8-2.7,9.8-6.2,13l7.5,8.3c3.5-3.2,8.6-10.5,8.6-21.7c0-9.3-4.4-21.1-15.6-21.1c-8.3,0-12.2,6.4-14,16.1l-0.6,3.2
		c-1,5.2-1.7,7.3-3.8,7.3c-2.5,0-3.4-3.3-3.4-6.2c0-4.2,2-8.5,4.5-11.4L28.6,413.5L28.6,413.5z M32.6,381.5h-8v8.7h-14v13h14v6.5h8
		v-6.5h23.3c10.4,0,12.7-5.6,12.7-12.8c0-4.8-0.5-7.4-0.7-8.3H57.6c0,0,0.1,3.7,0.1,4.6c0,2-0.7,3.4-3.7,3.4H32.6V381.5L32.6,381.5z
		 M17.9,336.4H7.7v13.1h10.2V336.4L17.9,336.4z M68.1,336.4H23.4v13.1h44.7V336.4L68.1,336.4z M23.4,324.7h44.7v-13H42.3
		c-3.8,0-9.2-0.7-9.2-6.6c0-4.1,2.1-6.4,8.4-6.4h26.7v-13.1H41.3c-5.4,0-8.4-2-8.4-6.8c0-4.7,3.4-6.2,9.4-6.2h25.8v-13.1H35.3
		c-8.8,0-13.1,5.5-13.1,13.7c0,6.7,3.2,10.8,5.2,13.3c-3.2,2.7-5.2,6.5-5.2,12.5c0,7.7,4.5,11.5,5.8,12.6h-4.6L23.4,324.7
		L23.4,324.7z M68.1,208.8c-1.6,1.1-3.1,1.3-6.9,1.3H35.1c-10.8,0-12.8,11.5-12.8,19.2c0,9.8,4,18.8,13.9,18.8v-13.2
		c-2-0.3-5.2-1.4-5.2-6.9c0-4.8,3.8-5,5.4-5h2.5c1.9,9.8,2.8,14.5,4.1,17.6c2.3,5.6,7.3,9.4,12.8,9.4c6.4,0,13.6-4.5,13.6-14.6
		c0-6.8-2.9-10.2-5.2-13.7h4L68.1,208.8L68.1,208.8z M46.7,223h2c6.3,0,11,3.9,11,9.1c0,3.8-3,5-4.5,5c-2,0-4.1-1.1-5.6-5.6
		L46.7,223L46.7,223z M23.4,170.3h4.1c-2.3,2.4-4.9,5.9-4.9,12.4c0,10.7,8.5,18.5,21.8,18.5c17.4,0,21.6-11.2,21.6-18.5
		c0-6-1.9-8.7-3.9-11.7h6.1c5.1,0,7.1,2.9,7.1,7.8c0,6.9-4.3,8.1-7.3,8.1v13.6h1.4c9.8,0,14.6-8.4,14.6-20.5
		c0-14.5-5.5-22.2-17.1-22.2H23.4V170.3L23.4,170.3z M44.4,171c4.5,0,11.6,0.4,11.6,8.2c0,7.2-5.7,8.4-12.1,8.4
		c-2.8,0-11.5-0.4-11.5-8C32.5,171.9,38.8,171,44.4,171L44.4,171z M17.9,133.2H7.7v13.1h10.2V133.2L17.9,133.2z M68.1,133.2H23.4
		v13.1h44.7V133.2L68.1,133.2z M68.1,81.4H36c-9.1,0-13.7,4.8-13.7,13.9c0,6.2,2.5,10.4,5,12.6h-3.9v13.4h44.7v-13.2h-25
		c-6,0-10.3-0.9-10.3-6.9c0-5.3,3.5-6.5,7.7-6.5h27.6V81.4L68.1,81.4z M48.5,27.5h-0.6c-12.4,0-25.8,5.6-25.8,22.4
		c0,17.5,13.3,22.9,24.6,22.9c14.5,0,23.1-9,23.1-22.6C69.7,41,65.3,33,56.8,28l-5.1,9.9c3.7,1.4,8,5,8,11.3
		c0,6.1-4.6,10.2-10.6,10.2h-0.5L48.5,27.5L48.5,27.5z M40.3,59.4c-3.6-0.6-8.8-3.2-8.8-9.4c0-5.4,3.8-8.7,8.8-8.9V59.4L40.3,59.4z
		 M68.1,8.3H53.8v13.5h14.3V8.3L68.1,8.3z"/>
	<path class="st1" d="M84.3,227.1v1.1l0.7,0.1v9.7l0.9,0.1v-1.9l14.8,2.4v1.9l0.9,0.1v-11.1l-3.4-0.5v1.1l2.2,0.4v6l-6.8-1.1v-4.6
		l1.9,0.3v-1.2l-5-0.8l0,1.1l1.9,0.3v4.6l-6.5-1v-5.8l2.2,0.4v-1.1L84.3,227.1L84.3,227.1z M91.4,214.1c-1,0.8-1.3,1.2-1.3,1.8
		c0,0.5,0.7,1.4,1.6,2l3.2,2.4l-4,1.7c-0.6,0.2-0.8,0.4-0.8,0.7c0,0.6,0.9,1.8,2.3,2.9l1.1,0.9l0.6-0.7c-1.3-1-2-1.7-2-2.1
		c0-0.2,0.2-0.4,0.8-0.7l3.4-1.5l2.3,1.9c0.8,0.6,1,1,1,1.5c0,0.3-0.1,0.5-0.5,0.8l1.4,1.4c0.9-0.7,1.2-1.3,1.2-1.9
		c0-0.5-0.4-0.9-1.7-1.9l-3-2.2l4-1.7c0.4-0.2,0.7-0.5,0.7-0.6c0-0.8-1.2-2.2-3.8-4.1l-0.5,0.8c1.7,1.3,2.3,1.9,2.3,2.3
		c0,0.1-0.1,0.3-0.3,0.4c-0.1,0-0.3,0.1-0.8,0.3l-3,1.2l-2.6-2c-0.8-0.6-1.1-1-1.1-1.4c0-0.2,0.2-0.5,0.6-0.9L91.4,214.1L91.4,214.1
		z M94,202.7c-2.3,0-4,0.7-4,1.8c0,1.3,1.9,3.5,4.5,5.2l-4.4-0.7v0.6l1.2,3.5h0.5V211l15.4,2.5v1.9l0.8,0.1v-5.9l-0.8-0.1v2.2
		l-5.6-0.9c0.4-0.7,0.6-1.5,0.6-2.2C102.1,205.5,98.2,202.7,94,202.7L94,202.7z M94.2,204.7c3.6,0,6.8,1.8,6.8,3.8c0,0.8-0.1,1-1,2
		l-1.4-0.2c-1.3-0.2-2.4-0.6-3.5-1.4c-1.8-1.2-3.1-2.7-3.1-3.4C92,205.1,92.8,204.7,94.2,204.7L94.2,204.7z M97.8,195.6l-0.5,0.7
		l0.8,0.6c1,0.8,1.3,1,2.1,2l-17-2.7v0.6l1.2,3.5h0.5v-2.1l14.1,2.2c0.7,0.1,1.2,0.1,1.5,0.1c0.5,0,0.8-0.1,1.6-0.3
		c-0.2-0.8-0.3-1.1-0.7-1.6C100.5,197.7,99.8,197.1,97.8,195.6L97.8,195.6z M94.9,184.5c-2.9,0-4.9,1.5-4.9,3.7
		c0,1.2,0.6,2.5,1.8,3.6c1.6,1.5,3.6,2.3,5.7,2.3c2.7,0,4.7-1.5,4.7-3.7c0-1.2-0.6-2.5-1.8-3.6C98.7,185.4,96.7,184.5,94.9,184.5
		L94.9,184.5z M95.1,186.5c3,0,5.8,1.6,5.8,3.4c0,1.3-1.7,2.3-4,2.3c-0.3,0-0.6,0-0.9,0c-2.7-0.3-4.9-1.8-4.9-3.4
		C91.1,187.5,92.9,186.5,95.1,186.5L95.1,186.5z M91.1,173.8c-0.7,0.3-1,0.7-1,1.2c0,1.2,1.8,2.9,4.3,4.2l-4.3-0.7v0.6l1.2,3.5h0.5
		v-2.1l10.1,1.6v-1.7l-2.6-0.4c-2.2-0.4-3.4-0.7-4.6-1.4c-1.4-0.8-2.2-1.5-2.2-2c0-0.2,0.2-0.5,0.6-1L91.1,173.8L91.1,173.8z
		 M97.9,165.2l-0.7,0.8c2,1.4,3.3,3.1,3.3,4.3c0,1-0.9,1.4-2.7,1.4h-1.3l-3.8-6.4h-0.6c-1.2,0-2.1,1.2-2.1,2.9
		c0,2.9,3.9,5.5,8.5,5.5c1.4,0,2.3-0.3,3.3-1c0.1-0.6,0.2-1.1,0.2-1.4C101.9,169.3,100.4,166.9,97.9,165.2L97.9,165.2z M92.5,167.2
		l2.7,4.4c-1.9-0.4-2.6-0.6-3.9-1.7c-0.3-0.8-0.4-1.2-0.4-1.7c0-0.7,0.3-1,1-1L92.5,167.2L92.5,167.2z M97.8,150.7l-0.6,0.7
		c1.3,1.2,1.6,1.6,2.8,3.4l-8.3-1.3v-2.4l-1.2-0.2v2.4l-3.7-0.6v1.8l3.6,0.6l0.8,2.3h0.5v-2.1l7.2,1.1c0.7,0.1,1.4,0.2,1.8,0.2
		c0.4,0,0.7,0,1.2-0.3c-0.2-0.7-0.2-1-0.7-1.6C100.3,153.2,99.3,152.1,97.8,150.7L97.8,150.7z M97.7,137.4l-0.5,0.8l0.8,0.6
		c1,0.7,1.3,1,2.1,2l-6.8-1.1c-0.8-0.1-1.5-0.2-1.8-0.2c-0.9,0-1.5,0.5-1.5,1.1c0,0.6,0.5,1.6,1.2,2.4c1.1,1.3,2.3,2.3,4.4,3.7
		l-12.5-2v0.6l1.2,3.5h0.5v-2.1l17,2.7v-1.7l-2-0.3c-1.4-0.2-2.2-0.5-3.6-1.4c-0.9-0.6-1.2-0.8-3-2.5c-1-0.9-1.4-1.4-1.4-1.8
		c0-0.3,0.3-0.4,0.8-0.4h0.2c0.1,0,0.3,0,0.7,0.1l5.4,0.9c0.7,0.1,1.1,0.1,1.5,0.1c0.5,0,0.8-0.1,1.6-0.3c-0.2-0.8-0.3-1.1-0.7-1.6
		C100.5,139.5,99.8,138.9,97.7,137.4L97.7,137.4z M97.9,127.6l-0.7,0.8c2,1.4,3.3,3.1,3.3,4.3c0,1-0.9,1.4-2.7,1.4h-1.3l-3.8-6.4
		h-0.6c-1.2,0-2.1,1.2-2.1,2.9c0,2.9,3.9,5.5,8.5,5.5c1.4,0,2.3-0.3,3.3-1c0.1-0.6,0.2-1.1,0.2-1.4
		C101.9,131.8,100.4,129.4,97.9,127.6L97.9,127.6z M92.5,129.7l2.7,4.4c-1.9-0.4-2.6-0.6-3.9-1.7c-0.3-0.8-0.4-1.2-0.4-1.7
		c0-0.7,0.3-1,1-1L92.5,129.7L92.5,129.7z M85.1,96.3v3.6l13.1,8.1l-13.1,3.8v4l0.9,0.1v-1.9l14.8,2.4v1.9l0.9,0.1v-5.1l-0.9-0.1
		v1.9l-12.7-2l14.1-4l-13.2-8.1l11.9,1.9v1.9l0.9,0.1V99l-0.9-0.1v1.9L86,98.4v-1.9L85.1,96.3L85.1,96.3z M97.7,82.9l-0.5,0.8
		l0.8,0.6c1,0.8,1.3,1,2.1,2l-9.8-1.5v1.7l2.1,0.3c1.4,0.2,2.6,0.7,3.9,1.6c2.2,1.5,4,3.3,4,4c0,0.3-0.3,0.5-0.8,0.5
		c-0.2,0-0.2,0-0.9-0.1L90,91.2v0.7l1.2,3.5h0.5v-2.1l6.9,1.1c1.1,0.2,1.7,0.2,1.9,0.2c0.9,0,1.5-0.4,1.5-1.1c0-1.5-2.2-3.9-5.6-6
		l2.5,0.4c0.6,0.1,1.2,0.1,1.5,0.1c0.5,0,0.8-0.1,1.6-0.3c-0.2-0.8-0.3-1.1-0.8-1.7C100.5,84.9,99.8,84.3,97.7,82.9L97.7,82.9z
		 M90.3,73.9v1.6c0,0,0,0.3-0.1,0.8c-0.1,0.2-0.1,0.4-0.1,0.6c0,1.9,1.4,3.4,3.3,3.4c1.1,0,1.6-0.4,3.2-2.5c0.8-1.1,1.6-1.6,2.4-1.6
		c1,0,1.9,0.9,1.9,2c0,1.1-0.5,1.9-1.2,1.9c-0.2,0-0.5,0-0.8-0.1v0.8l2.9,0.5v-1.6c0,0,0-0.2,0.1-0.5c0-0.2,0.1-0.4,0.1-0.7
		c0-2.2-1.6-4-3.5-4c-1.1,0-1.9,0.5-3.1,2.1c-1.2,1.6-1.7,2-2.4,2c-0.9,0-1.8-0.9-1.8-2c0-0.9,0.5-1.6,1.2-1.6c0.2,0,0.6,0,0.9,0.1
		v-0.8L90.3,73.9L90.3,73.9z M97.9,63.5l-0.7,0.8c2,1.4,3.3,3.1,3.3,4.3c0,1-0.9,1.4-2.7,1.4h-1.3l-3.8-6.4h-0.6
		c-1.2,0-2.1,1.2-2.1,2.9c0,2.9,3.9,5.5,8.5,5.5c1.4,0,2.3-0.3,3.3-1c0.1-0.6,0.2-1.1,0.2-1.4C101.9,67.7,100.4,65.3,97.9,63.5
		L97.9,63.5z M92.5,65.6l2.7,4.4c-1.9-0.4-2.6-0.6-3.9-1.7c-0.3-0.8-0.4-1.2-0.4-1.7c0-0.7,0.3-1,1-1L92.5,65.6L92.5,65.6z
		 M97.7,48.8l-0.5,0.8l0.8,0.6c1,0.8,1.3,1,2.1,2l-9.8-1.5v1.7l2.1,0.3c1.4,0.2,2.6,0.7,3.9,1.6c2.2,1.5,4,3.3,4,4
		c0,0.3-0.3,0.5-0.8,0.5c-0.2,0-0.2,0-0.9-0.1L90,57.1v0.7l1.2,3.5h0.5v-2.1l6.9,1.1c1.1,0.2,1.7,0.2,1.9,0.2c0.9,0,1.5-0.4,1.5-1.1
		c0-1.5-2.2-3.9-5.6-6l2.5,0.4c0.6,0.1,1.2,0.1,1.5,0.1c0.5,0,0.8-0.1,1.6-0.3c-0.2-0.8-0.3-1.1-0.8-1.7
		C100.5,50.9,99.8,50.3,97.7,48.8L97.7,48.8z M97.8,27.8l-0.5,0.7c0.3,0.2,0.6,0.4,0.8,0.6c1,0.7,1.3,1,2.1,2L93.3,30
		c-0.8-0.1-1.4-0.2-1.7-0.2c-1,0-1.5,0.4-1.5,1.1c0,1.5,2.3,4,5.6,6l-2.3-0.4c-0.6-0.1-1.4-0.2-1.7-0.2c-1,0-1.5,0.4-1.5,1.1
		c0,1.5,2.2,3.9,5.6,6.1L90,42.7v0.6l1.2,3.5h0.5v-2.1l10.1,1.6v-1.7l-2-0.3c-1.3-0.2-2.3-0.6-3.6-1.3c-0.9-0.6-1.3-0.9-3-2.5
		c-1-0.9-1.4-1.4-1.4-1.8c0-0.2,0.2-0.4,0.6-0.4c0.1,0,0.2,0,0.3,0l9,1.4V38l-2-0.3c-1.3-0.2-2.3-0.6-3.6-1.4
		c-0.5-0.3-0.9-0.6-1.2-0.8c-0.3-0.2-0.9-0.8-1.8-1.6c-1-0.9-1.4-1.4-1.4-1.8c0-0.3,0.3-0.4,0.8-0.4h0.2c0.1,0,0.3,0,0.7,0.1
		l5.4,0.9c0.7,0.1,1.2,0.1,1.5,0.1c0.5,0,0.8-0.1,1.6-0.3c-0.2-0.8-0.3-1.1-0.8-1.7C100.5,29.9,99.9,29.4,97.8,27.8L97.8,27.8z"/>
	<line class="st2" x1="93.6" y1="324.1" x2="93.6" y2="252.1"/>
	<path class="st3" d="M95.5,20.6V9 M91.8,13l3.7-4l3.7,4"/>
</g>
</svg>
